<?xml version="1.0" encoding="UTF-8" standalone="no" ?>
<!DOCTYPE svg PUBLIC "-//W3C//DTD SVG 1.1//EN" "http://www.w3.org/Graphics/SVG/1.1/DTD/svg11.dtd">
<svg xmlns="http://www.w3.org/2000/svg" xmlns:xlink="http://www.w3.org/1999/xlink" version="1.1" width="640" height="640" viewBox="0 0 640 640" xml:space="preserve">
<desc>Created with Fabric.js 5.3.0</desc>
<defs>
</defs>
<g transform="matrix(9.2230808049 0 0 9.2230808049 621.1346095873 681.5648266944)" id="WfXtY3FkAUNhlWgp1qX-D"  >
<path style="stroke: rgb(255,255,255); stroke-width: 1; stroke-dasharray: none; stroke-linecap: round; stroke-dashoffset: 0; stroke-linejoin: round; stroke-miterlimit: 10; fill: none; fill-rule: nonzero; opacity: 1;"  transform=" translate(-411.2885451963, -319.410706831)" d="M 411.2875451963187 319.4107068310414 L 411.28954519631867 319.4107068310414" stroke-linecap="round" />
</g>
<g transform="matrix(6.6375 0 0 6.6375 320 320)" id="OaohINqpUXYLqDN0UKc2e"  >
<path style="stroke: rgb(255,255,255); stroke-width: 0; stroke-dasharray: none; stroke-linecap: butt; stroke-dashoffset: 0; stroke-linejoin: miter; stroke-miterlimit: 4; fill: rgb(0,0,0); fill-rule: nonzero; opacity: 1;"  transform=" translate(0, 0)" d="M 0 -45.19774 C 24.94915 -45.19774 45.19774 -24.949150000000003 45.19774 0 C 45.19774 24.94915 24.949150000000003 45.19774 0 45.19774 C -24.94915 45.19774 -45.19774 24.949150000000003 -45.19774 0 C -45.19774 -24.94915 -24.949150000000003 -45.19774 0 -45.19774 z" stroke-linecap="round" />
</g>
<g transform="matrix(2.2371872951 0 0 2.2371872951 320 320)" id="5UQp0db3fcppkGxJTsMP7"  >
<path style="stroke: rgb(255,255,255); stroke-width: 0; stroke-dasharray: none; stroke-linecap: butt; stroke-dashoffset: 0; stroke-linejoin: miter; stroke-miterlimit: 4; fill: rgb(255,255,255); fill-rule: nonzero; opacity: 1;"  transform=" translate(-98.96084, -100.01224)" d="M 67.97907 111.40125 C 67.97907 111.4033 67.97907 111.41929 67.97907 111.44924 C 67.97907 111.47919 67.97907 111.50913 67.97907 111.53908 C 67.97907 111.56903 67.97907 111.59897 67.97907 111.62892 C 67.97907 111.65887 67.96409999999999 111.67384 67.93414999999999 111.67384 C 67.93108999999998 111.67384 67.92819999999999 111.67399999999999 67.92544999999998 111.67431 L 67.66940999999998 111.56961000000001 C 67.66940999999998 111.59069000000001 67.66940999999998 111.61177 67.66940999999998 111.63285 C 67.66940999999998 111.65592000000001 67.66940999999998 111.67899 67.66940999999998 111.70205 C 67.66940999999998 111.72512 67.66940999999998 111.74819 67.66940999999998 111.77125 C 67.66940999999998 111.79432 67.64633999999998 111.80584999999999 67.60020999999999 111.80584999999999 C 67.57113999999999 111.80584999999999 67.53291999999999 111.80584999999999 67.48554999999999 111.80584999999999 C 67.52376999999998 111.81935999999999 67.56199 111.83089999999999 67.60020999999999 111.84044999999999 C 67.63515999999998 111.84919 67.66846 111.85793 67.70009999999999 111.86666 C 67.70639999999999 111.8741 67.70956 111.88468 67.70956 111.89842999999999 C 67.70956 111.92837999999999 67.72453 111.94335 67.75448 111.94335 C 67.75448 111.94335 67.75448 111.94335 67.75448 111.94335 C 67.72453 111.94335 67.69459 111.94335 67.66464 111.94335 C 67.63469 111.94335 67.60475000000001 111.94335 67.57480000000001 111.94335 C 67.54485000000001 111.94335 67.51491000000001 111.94335 67.48496000000002 111.94335 C 67.45501000000002 111.94335 67.44004000000001 111.92837999999999 67.44004000000001 111.89842999999999 C 67.44004000000001 111.86847999999999 67.45501000000002 111.85350999999999 67.48496000000002 111.85350999999999 C 67.44753000000001 111.85350999999999 67.41010000000001 111.85350999999999 67.39512000000002 111.85350999999999 C 67.36517000000002 111.85350999999999 67.33523000000002 111.85350999999999 67.30528000000002 111.85350999999999 C 67.27533000000003 111.85350999999999 67.24539000000003 111.85350999999999 67.21544000000003 111.85350999999999 C 67.18549000000003 111.85350999999999 67.15555000000003 111.85350999999999 67.12560000000003 111.85350999999999 C 67.11515000000003 111.85350999999999 67.10470000000004 111.85350999999999 67.09425000000003 111.85350999999999 C 67.08990000000003 111.84915999999998 67.08554000000004 111.84479999999999 67.08119000000003 111.84044999999999 C 67.05812000000003 111.81737999999999 67.03505000000004 111.79431 67.01199000000004 111.77125 C 66.98892000000004 111.74817999999999 66.96585000000005 111.72511 66.94279000000004 111.70205 C 66.94273000000004 111.70199 66.94267000000005 111.70193 66.94261000000004 111.70187 C 67.01525000000005 111.73742 67.07297000000004 111.76055 67.11580000000005 111.77125 C 67.20807000000005 111.79432 67.30034000000005 111.80584999999999 67.39262000000005 111.80584999999999 C 67.42676000000004 111.80584999999999 67.45775000000005 111.80584999999999 67.48557000000005 111.80584999999999 C 67.43152000000005 111.78674 67.37747000000006 111.76366999999999 67.32341000000005 111.73665 C 67.23114000000005 111.69051 67.12733000000006 111.64438 67.01199000000005 111.59824 C 66.91425000000005 111.55914 66.83307000000005 111.52005 66.76846000000005 111.48095 C 66.76484000000005 111.46238000000001 66.75374000000005 111.44380000000001 66.73517000000005 111.42523000000001 C 66.71210000000005 111.40216000000001 66.70057000000006 111.37909000000002 66.70057000000006 111.35603000000002 C 66.70057000000006 111.33296000000001 66.68904000000006 111.32143000000002 66.66597000000006 111.32143000000002 C 66.64290000000005 111.32143000000002 66.63137000000006 111.30990000000003 66.63137000000006 111.28683000000002 C 66.63137000000006 111.26376000000002 66.61984000000007 111.25223000000003 66.59677000000006 111.25223000000003 C 66.57370000000006 111.25223000000003 66.56217000000007 111.24070000000003 66.56217000000007 111.21763000000003 C 66.56217000000007 111.20211000000003 66.55695000000007 111.19182000000002 66.54652000000007 111.18674000000003 L 66.84097000000007 111.23083000000003 L 67.66944000000007 111.56961000000003 C 67.66944000000007 111.56762000000002 67.66944000000007 111.56564000000003 67.66944000000007 111.56365000000002 C 67.66944000000007 111.54058000000002 67.65791000000007 111.52905000000003 67.63484000000007 111.52905000000003 C 67.61177000000006 111.52905000000003 67.58870000000007 111.51752000000003 67.56564000000007 111.49445000000003 C 67.54257000000007 111.47138000000002 67.50797000000007 111.44831000000003 67.46183000000008 111.42525000000003 C 67.41569000000008 111.40218000000003 67.38109000000007 111.37911000000004 67.35802000000008 111.35605000000004 C 67.33929000000008 111.33732000000003 67.32055000000008 111.31858000000004 67.30182000000008 111.29985000000003 z M 67.75447 111.94336 C 67.78442 111.94336 67.81436 111.94336 67.84431 111.94336 C 67.87425999999999 111.94336 67.88923 111.95833 67.88923 111.98828 C 67.88923 112.01823 67.9042 112.03320000000001 67.93415 112.03320000000001 C 67.9042 112.03320000000001 67.87426 112.01823 67.84431000000001 111.98828 C 67.81436000000001 111.95833 67.78442000000001 111.94336 67.75447000000001 111.94336 C 67.75447000000001 111.94336 67.75447000000001 111.94336 67.75447000000001 111.94336 z M 68.11383 112.0332 C 68.14377999999999 112.0332 68.17371999999999 112.0332 68.20366999999999 112.0332 C 68.20678999999998 112.0332 68.20991 112.0332 68.21302999999999 112.0332 C 68.22789999999999 112.03815999999999 68.24277 112.04311 68.25764999999998 112.04807 C 68.28658999999999 112.05771999999999 68.31351999999998 112.06737 68.33842999999999 112.07701 C 68.33842999999999 112.07738 68.33843999999999 112.07774 68.33843999999999 112.07811 C 68.33843999999999 112.10806 68.32346999999999 112.12303 68.29351999999999 112.12303 C 68.26356999999999 112.12303 68.23362999999999 112.12303 68.20367999999999 112.12303 C 68.17372999999999 112.12303 68.14379 112.12303 68.11384 112.12303 C 68.08389 112.12303 68.06891999999999 112.10806 68.06891999999999 112.07811 C 68.06891999999999 112.04816 68.05394999999999 112.03318999999999 68.02399999999999 112.03318999999999 C 68.05394999999999 112.03318999999999 68.08388999999998 112.03318999999999 68.11383999999998 112.03318999999999 z M 65.68815 111.40432 C 65.6582 111.40432 65.64322999999999 111.38935 65.64322999999999 111.3594 C 65.64322999999999 111.32945 65.62825999999998 111.31447999999999 65.59830999999998 111.31447999999999 C 65.62825999999998 111.31447999999999 65.65819999999998 111.32945 65.68814999999998 111.3594 C 65.69290999999998 111.36416 65.69765999999998 111.36891 65.70241999999998 111.37366999999999 L 65.71976999999997 111.40988999999999 C 65.70922999999996 111.40617999999999 65.69868999999997 111.40432999999999 65.68814999999996 111.40432999999999 z M 65.50847 111.31448 C 65.47852 111.31448 65.44858 111.31448 65.41863000000001 111.31448 C 65.44858 111.31448 65.46355000000001 111.32945000000001 65.46355000000001 111.35940000000001 C 65.46355000000001 111.38935000000001 65.47852000000002 111.40432000000001 65.50847000000002 111.40432000000001 C 65.53842000000002 111.40432000000001 65.56836000000001 111.40432000000001 65.59831000000001 111.40432000000001 C 65.62826000000001 111.40432000000001 65.64323000000002 111.41929000000002 65.64323000000002 111.44924000000002 C 65.64323000000002 111.47919000000002 65.65820000000002 111.49416000000002 65.68815000000002 111.49416000000002 C 65.65820000000002 111.49416000000002 65.62826000000003 111.49416000000002 65.59831000000003 111.49416000000002 C 65.56836000000003 111.49416000000002 65.55339000000002 111.47919000000002 65.55339000000002 111.44924000000002 C 65.55339000000002 111.41929000000002 65.53842000000002 111.40432000000001 65.50847000000002 111.40432000000001 C 65.47852000000002 111.40432000000001 65.44858000000002 111.40432000000001 65.41863000000002 111.40432000000001 C 65.38868000000002 111.40432000000001 65.35874000000003 111.40432000000001 65.32879000000003 111.40432000000001 C 65.29884000000003 111.40432000000001 65.28387000000002 111.38935000000001 65.28387000000002 111.35940000000001 C 65.28387000000002 111.32945000000001 65.26890000000002 111.31448 65.23895000000002 111.31448 C 65.20900000000002 111.31448 65.17906000000002 111.31448 65.14911000000002 111.31448 C 65.11916000000002 111.31448 65.10419000000002 111.29951 65.10419000000002 111.26956 C 65.10419000000002 111.23961 65.08922000000001 111.22464 65.05927000000001 111.22464 C 65.02932000000001 111.22464 64.99938000000002 111.22464 64.96943000000002 111.22464 C 64.93948000000002 111.22464 64.90954000000002 111.20966999999999 64.87959000000002 111.17971999999999 C 64.84964000000002 111.14976999999999 64.81970000000003 111.13479999999998 64.78975000000003 111.13479999999998 C 64.75980000000003 111.13479999999998 64.74483000000002 111.11982999999998 64.74483000000002 111.08987999999998 C 64.74483000000002 111.05992999999998 64.72986000000002 111.04495999999997 64.69991000000002 111.04495999999997 C 64.72986000000002 111.04495999999997 64.75980000000001 111.04495999999997 64.78975000000001 111.04495999999997 C 64.81970000000001 111.04495999999997 64.84964000000001 111.04495999999997 64.87959000000001 111.04495999999997 C 64.90954 111.04495999999997 64.93948 111.05992999999998 64.96943 111.08987999999998 C 64.99938 111.11982999999998 65.02932 111.13479999999998 65.05927 111.13479999999998 C 65.07424 111.13479999999998 65.08922 111.13479999999998 65.10419 111.13479999999998 C 65.10419 111.11982999999998 65.10419 111.10485999999999 65.10419 111.08987999999998 C 65.10419 111.11982999999998 65.11916000000001 111.13479999999998 65.14911000000001 111.13479999999998 C 65.17906 111.13479999999998 65.19403000000001 111.14976999999999 65.19403000000001 111.17971999999999 C 65.19403000000001 111.20966999999999 65.20900000000002 111.22464 65.23895000000002 111.22464 C 65.26890000000002 111.22464 65.29884000000001 111.22464 65.32879000000001 111.22464 C 65.35874000000001 111.22464 65.38868000000001 111.22464 65.41863000000001 111.22464 C 65.44858 111.22464 65.46355000000001 111.23961 65.46355000000001 111.26956 C 65.46355000000001 111.29951 65.47852000000002 111.31448 65.50847000000002 111.31448 z M 64.96943 111.04496 C 64.93948 111.04496 64.90954 111.02999 64.87959000000001 111.00004 C 64.84964000000001 110.97009 64.81970000000001 110.95512 64.78975000000001 110.95512 C 64.75980000000001 110.95512 64.72986000000002 110.95512 64.69991000000002 110.95512 C 64.66996000000002 110.95512 64.65499000000001 110.94014999999999 64.65499000000001 110.91019999999999 C 64.65499000000001 110.88024999999999 64.64002 110.86527999999998 64.61007000000001 110.86527999999998 C 64.58012000000001 110.86527999999998 64.55018000000001 110.86527999999998 64.52023000000001 110.86527999999998 C 64.49028000000001 110.86527999999998 64.46034000000002 110.86527999999998 64.43039000000002 110.86527999999998 C 64.40044000000002 110.86527999999998 64.38547000000001 110.85030999999998 64.38547000000001 110.82035999999998 C 64.38547000000001 110.79040999999998 64.3705 110.77543999999997 64.34055000000001 110.77543999999997 C 64.31060000000001 110.77543999999997 64.28066000000001 110.77543999999997 64.25071000000001 110.77543999999997 C 64.22076000000001 110.77543999999997 64.20579000000001 110.76046999999997 64.20579000000001 110.73051999999997 C 64.20579000000001 110.70056999999997 64.19082 110.68559999999997 64.16087 110.68559999999997 C 64.13092 110.68559999999997 64.10098 110.67062999999996 64.07103000000001 110.64067999999996 C 64.04108000000001 110.61072999999996 64.01114000000001 110.59575999999996 63.981190000000005 110.59575999999996 C 63.951240000000006 110.59575999999996 63.93627000000001 110.58078999999995 63.93627000000001 110.55083999999995 C 63.93627000000001 110.52088999999995 63.92130000000001 110.50591999999995 63.89135000000001 110.50591999999995 C 63.86140000000001 110.50591999999995 63.84643000000001 110.49094999999994 63.84643000000001 110.46099999999994 C 63.84643000000001 110.43104999999994 63.831460000000014 110.41607999999994 63.801510000000015 110.41607999999994 C 63.771560000000015 110.41607999999994 63.75659000000002 110.40110999999993 63.75659000000002 110.37115999999993 C 63.75659000000002 110.34120999999993 63.74162000000002 110.31126999999994 63.71167000000002 110.28131999999994 C 63.68172000000002 110.25136999999994 63.65178000000002 110.22142999999994 63.62183000000002 110.19147999999994 C 63.59188000000002 110.16152999999994 63.59188000000002 110.16152999999994 63.62183000000002 110.19147999999994 C 63.65178000000002 110.22142999999994 63.68172000000002 110.23639999999995 63.71167000000002 110.23639999999995 C 63.74162000000002 110.23639999999995 63.75659000000002 110.25136999999995 63.75659000000002 110.28131999999995 C 63.75659000000002 110.31126999999995 63.771560000000015 110.32623999999996 63.801510000000015 110.32623999999996 C 63.831460000000014 110.32623999999996 63.86140000000002 110.32623999999996 63.89135000000002 110.32623999999996 C 63.921300000000016 110.32623999999996 63.95124000000002 110.34120999999996 63.98119000000002 110.37115999999996 C 64.01114000000003 110.40110999999996 64.04108000000002 110.41607999999997 64.07103000000002 110.41607999999997 C 64.07299000000002 110.41607999999997 64.07495000000002 110.41613999999997 64.07691000000003 110.41626999999997 C 64.08253000000002 110.42963999999996 64.09203000000002 110.44300999999997 64.10539000000003 110.45636999999996 C 64.12846000000003 110.47943999999997 64.13999000000003 110.50250999999996 64.13999000000003 110.52556999999996 C 64.13999000000003 110.54863999999996 64.15152000000002 110.56016999999996 64.17459000000002 110.56016999999996 C 64.19766000000003 110.56016999999996 64.22073000000002 110.57169999999995 64.24379000000002 110.59476999999995 C 64.26686000000002 110.61783999999996 64.30146000000002 110.62936999999995 64.34760000000001 110.62936999999995 C 64.39374000000001 110.62936999999995 64.45141000000001 110.65243999999996 64.52061000000002 110.69856999999995 C 64.56388000000003 110.72741999999995 64.61618000000001 110.75175999999995 64.67749000000002 110.77158999999995 C 64.67962000000001 110.77246999999994 64.68190000000001 110.77318999999994 64.68433000000002 110.77376999999994 C 64.70061000000001 110.77888999999995 64.71752000000002 110.78369999999994 64.73504000000001 110.78819999999995 C 64.74156 110.79564999999995 64.74482000000002 110.80636999999994 64.74482000000002 110.82033999999994 C 64.74482000000002 110.85028999999994 64.75979000000002 110.86525999999995 64.78974000000002 110.86525999999995 C 64.81969000000002 110.86525999999995 64.83466000000003 110.88022999999995 64.83466000000003 110.91017999999995 C 64.83466000000003 110.94012999999995 64.84963000000003 110.95509999999996 64.87958000000003 110.95509999999996 C 64.90953000000003 110.95509999999996 64.93947000000003 110.95509999999996 64.96942000000003 110.95509999999996 C 64.99937000000003 110.95509999999996 65.01434000000003 110.97006999999996 65.01434000000003 111.00001999999996 C 65.01434000000003 111.02996999999996 65.02931000000004 111.04493999999997 65.05926000000004 111.04493999999997 C 65.02931000000004 111.04493999999997 64.99937000000004 111.04493999999997 64.96942000000004 111.04493999999997 z M 173.65541 30.49072 C 173.65544 30.49072 173.65547999999998 30.49072 173.65551 30.49072 C 173.69113 42.07984 183.10766999999998 51.474419999999995 194.7051 51.474419999999995 C 194.72697 51.474419999999995 194.74883 51.47438999999999 194.77068 51.47431999999999 C 194.77095 51.51830999999999 194.77108 51.56233999999999 194.77108 51.606399999999994 C 194.77108 51.606429999999996 194.77108 51.606469999999995 194.77108 51.6065 C 183.18196 51.64212 173.78738 61.058659999999996 173.78738 72.65608999999999 C 173.78738 72.67796 173.78741000000002 72.69981999999999 173.78748000000002 72.72166999999999 C 173.74349 72.72193999999999 173.69946000000002 72.72206999999999 173.65540000000001 72.72206999999999 C 173.65537 72.72206999999999 173.65533000000002 72.72206999999999 173.6553 72.72206999999999 C 173.65537 72.70007999999999 173.65540000000001 72.67808999999998 173.65540000000001 72.65607999999999 C 173.65540000000001 61.03902999999999 164.229 51.61024999999999 152.61284 51.60638999999999 C 164.229 51.60252999999999 173.65540000000001 42.17374999999999 173.65540000000001 30.556699999999992 C 173.65540000000001 30.53468999999999 173.65537 30.51269999999999 173.6553 30.490709999999993 C 173.65533000000002 30.490709999999993 173.65537 30.490709999999993 173.65540000000001 30.490709999999993 z M 152.53973 51.6065 C 152.53973 51.606469999999995 152.53973 51.606429999999996 152.53973 51.606399999999994 C 152.53973 51.60636999999999 152.53973 51.60632999999999 152.53973 51.60629999999999 C 152.55934 51.60635999999999 152.57896 51.606399999999994 152.59859 51.606399999999994 C 152.57897 51.60641 152.55935 51.60643999999999 152.53973 51.6065 z M 100.0119 0 C 102.71879 0 105.40065 0.10772 108.05349 0.31911 C 111.99244 1.11202 115.88071 2.20441 119.68132 3.59499 C 118.47937 3.5334700000000003 117.26939 3.50232 116.05223 3.50232 L 116.05014 3.50081 C 77.44229999999999 3.50081 46.10840999999999 34.83469 46.10840999999999 73.44254000000001 C 46.10840999999999 84.18829000000001 48.53578999999999 94.37055000000001 52.871779999999994 103.47053000000001 C 53.01799 103.61674000000001 53.16416999999999 103.76292000000001 53.310379999999995 103.90913 C 53.46064 104.05939000000001 53.61091 104.20966 53.76116999999999 104.35992 C 53.911429999999996 104.51018 54.061699999999995 104.66045 54.21195999999999 104.81071 C 54.36221999999999 104.96097 54.51248999999999 105.11124 54.66274999999999 105.2615 C 54.81300999999999 105.41176 54.96327999999999 105.56203 55.113539999999986 105.71229 C 55.26379999999999 105.86255 55.41406999999999 106.01281999999999 55.564329999999984 106.16308 C 55.71458999999999 106.31334 55.864859999999986 106.38847999999999 56.01511999999998 106.38847999999999 C 56.165379999999985 106.38847999999999 56.315649999999984 106.46360999999999 56.46590999999998 106.61387999999998 C 56.61616999999998 106.76413999999998 56.69130999999998 106.91440999999998 56.69130999999998 107.06466999999998 C 56.69130999999998 107.21492999999998 56.76643999999998 107.29006999999997 56.91670999999998 107.29006999999997 C 56.99113999999998 107.29006999999997 57.065559999999984 107.30849999999997 57.13998999999998 107.34535999999997 L 57.13998999999998 106.83899999999997 C 57.14136999999998 106.83899999999997 57.217179999999985 106.91412999999997 57.36743999999998 107.06439999999996 C 57.517699999999984 107.21465999999997 57.66796999999998 107.28979999999996 57.81822999999998 107.28979999999996 C 57.96848999999998 107.28979999999996 58.04362999999998 107.36492999999996 58.04362999999998 107.51519999999995 C 58.04362999999998 107.66545999999995 58.11875999999998 107.74059999999994 58.26902999999998 107.74059999999994 C 58.41928999999998 107.74059999999994 58.49442999999998 107.81572999999995 58.49442999999998 107.96599999999994 C 58.49442999999998 108.11625999999994 58.56955999999998 108.19139999999993 58.71982999999998 108.19139999999993 C 58.87008999999998 108.19139999999993 58.94522999999998 108.26652999999993 58.94522999999998 108.41679999999992 C 58.94522999999998 108.56705999999993 59.02035999999998 108.64219999999992 59.17062999999998 108.64219999999992 C 59.320889999999984 108.64219999999992 59.39602999999998 108.71732999999992 59.39602999999998 108.86759999999991 C 59.39602999999998 109.01785999999991 59.47115999999998 109.0929999999999 59.62142999999998 109.0929999999999 C 59.771689999999985 109.0929999999999 59.84682999999998 109.1681299999999 59.84682999999998 109.3183999999999 C 59.84682999999998 109.4686599999999 59.921959999999984 109.54379999999989 60.07222999999998 109.54379999999989 C 60.222489999999986 109.54379999999989 60.297629999999984 109.61892999999989 60.297629999999984 109.76919999999988 C 60.297629999999984 109.91945999999989 60.372759999999985 109.99459999999988 60.523029999999984 109.99459999999988 C 60.67328999999999 109.99459999999988 60.748429999999985 110.06972999999988 60.748429999999985 110.21999999999987 C 60.748429999999985 110.37025999999987 60.823559999999986 110.44539999999986 60.973829999999985 110.44539999999986 C 61.12408999999999 110.44539999999986 61.27435999999999 110.52052999999987 61.42461999999998 110.67079999999986 C 61.574879999999986 110.82105999999986 61.725149999999985 110.89619999999985 61.87540999999998 110.89619999999985 C 62.025669999999984 110.89619999999985 62.10080999999998 110.97132999999985 62.10080999999998 111.12159999999984 C 62.10080999999998 111.27185999999985 62.17593999999998 111.34699999999984 62.32620999999998 111.34699999999984 C 62.476469999999985 111.34699999999984 62.626739999999984 111.42212999999984 62.77699999999998 111.57239999999983 C 62.92725999999998 111.72265999999983 63.07752999999998 111.79779999999982 63.22778999999998 111.79779999999982 C 63.37804999999998 111.79779999999982 63.52831999999998 111.79779999999982 63.678579999999975 111.79779999999982 C 63.82883999999998 111.79779999999982 63.903979999999976 111.87292999999983 63.903979999999976 112.02319999999982 C 63.903979999999976 112.17345999999982 63.97910999999998 112.24859999999981 64.12937999999997 112.24859999999981 C 64.27963999999997 112.24859999999981 64.42990999999996 112.24859999999981 64.58016999999997 112.24859999999981 C 64.73042999999997 112.24859999999981 64.80556999999996 112.32372999999981 64.80556999999996 112.4739999999998 C 64.80556999999996 112.62425999999981 64.88069999999996 112.6993999999998 65.03096999999995 112.6993999999998 C 65.18122999999996 112.6993999999998 65.33149999999995 112.6993999999998 65.48175999999995 112.6993999999998 C 65.63201999999995 112.6993999999998 65.78228999999995 112.6993999999998 65.93254999999995 112.6993999999998 C 66.08280999999995 112.6993999999998 66.23307999999994 112.7745299999998 66.38333999999995 112.92479999999979 C 66.53359999999995 113.0750599999998 66.68386999999994 113.15019999999978 66.83412999999994 113.15019999999978 C 66.98438999999995 113.15019999999978 67.13465999999994 113.15019999999978 67.28491999999994 113.15019999999978 C 67.43517999999995 113.15019999999978 67.58544999999994 113.15019999999978 67.73570999999994 113.15019999999978 C 67.88596999999994 113.15019999999978 68.03623999999994 113.22532999999979 68.18649999999994 113.37559999999978 C 68.33675999999994 113.52585999999978 68.48702999999993 113.60099999999977 68.63728999999994 113.60099999999977 C 68.78754999999994 113.60099999999977 68.93781999999993 113.60099999999977 69.08807999999993 113.60099999999977 C 69.23833999999994 113.60099999999977 69.38860999999993 113.60099999999977 69.53886999999993 113.60099999999977 C 69.68912999999993 113.60099999999977 69.83939999999993 113.60099999999977 69.98965999999993 113.60099999999977 C 70.13991999999993 113.60099999999977 70.29018999999992 113.60099999999977 70.44044999999993 113.60099999999977 C 70.59070999999993 113.60099999999977 70.74097999999992 113.60099999999977 70.89123999999993 113.60099999999977 C 71.04149999999993 113.60099999999977 71.19176999999992 113.60099999999977 71.34202999999992 113.60099999999977 C 71.49228999999993 113.60099999999977 71.64255999999992 113.60099999999977 71.79281999999992 113.60099999999977 C 71.94307999999992 113.60099999999977 72.09334999999992 113.60099999999977 72.24360999999992 113.60099999999977 C 72.39386999999992 113.60099999999977 72.54413999999991 113.60099999999977 72.69439999999992 113.60099999999977 C 72.84465999999992 113.60099999999977 72.99492999999991 113.60099999999977 73.14518999999991 113.60099999999977 C 73.29544999999992 113.60099999999977 73.44571999999991 113.60099999999977 73.59597999999991 113.60099999999977 C 73.74623999999991 113.60099999999977 73.8965099999999 113.60099999999977 74.04676999999991 113.60099999999977 C 74.19702999999991 113.60099999999977 74.3472999999999 113.60099999999977 74.49755999999991 113.60099999999977 C 74.64781999999991 113.60099999999977 74.7980899999999 113.60099999999977 74.9483499999999 113.60099999999977 C 75.09860999999991 113.60099999999977 75.2488799999999 113.60099999999977 75.3991399999999 113.60099999999977 C 75.5493999999999 113.60099999999977 75.6996699999999 113.60099999999977 75.8499299999999 113.60099999999977 C 76.0001899999999 113.60099999999977 76.1504599999999 113.60099999999977 76.3007199999999 113.60099999999977 C 76.4509799999999 113.60099999999977 76.6012499999999 113.60099999999977 76.7515099999999 113.60099999999977 C 76.9017699999999 113.60099999999977 77.05203999999989 113.60099999999977 77.2022999999999 113.60099999999977 C 77.3525599999999 113.60099999999977 77.50282999999989 113.60099999999977 77.65308999999989 113.60099999999977 C 77.8033499999999 113.60099999999977 77.95361999999989 113.60099999999977 78.10387999999989 113.60099999999977 C 78.2541399999999 113.60099999999977 78.40440999999988 113.60099999999977 78.55466999999989 113.60099999999977 C 78.70492999999989 113.60099999999977 78.85519999999988 113.60099999999977 79.00545999999989 113.60099999999977 C 79.15571999999989 113.60099999999977 79.30598999999988 113.60099999999977 79.45624999999988 113.60099999999977 C 79.60650999999989 113.60099999999977 79.75677999999988 113.60099999999977 79.90703999999988 113.60099999999977 C 80.05729999999988 113.60099999999977 80.20756999999988 113.60099999999977 80.35782999999988 113.60099999999977 C 80.50808999999988 113.60099999999977 80.65835999999987 113.60099999999977 80.80861999999988 113.60099999999977 C 80.95887999999988 113.60099999999977 81.10914999999987 113.60099999999977 81.25940999999987 113.60099999999977 C 81.40966999999988 113.60099999999977 81.55993999999987 113.67612999999977 81.71019999999987 113.82639999999977 C 81.86045999999988 113.97665999999977 82.01072999999987 114.05179999999976 82.16098999999987 114.05179999999976 C 82.31124999999987 114.05179999999976 82.46151999999987 114.05179999999976 82.61177999999987 114.05179999999976 C 82.76203999999987 114.05179999999976 82.83717999999986 114.12692999999976 82.83717999999986 114.27719999999975 C 82.83717999999986 114.42745999999975 82.91230999999986 114.50259999999975 83.06257999999985 114.50259999999975 C 83.21283999999986 114.50259999999975 83.36310999999985 114.57772999999975 83.51336999999985 114.72799999999974 C 83.66362999999986 114.87825999999974 83.81389999999985 115.02852999999973 83.96415999999985 115.17878999999974 C 84.11441999999985 115.32904999999974 84.18955999999984 115.47931999999973 84.18955999999984 115.62957999999973 C 84.18955999999984 115.77983999999974 84.18955999999984 115.93010999999973 84.18955999999984 116.08036999999973 C 84.18955999999984 116.23062999999973 84.26468999999985 116.30576999999973 84.41495999999984 116.30576999999973 C 84.56521999999984 116.30576999999973 84.64035999999983 116.38089999999973 84.64035999999983 116.53116999999972 C 84.64035999999983 116.68142999999972 84.64035999999983 116.83169999999971 84.64035999999983 116.98195999999972 C 84.64035999999983 117.13221999999972 84.64035999999983 117.28248999999971 84.64035999999983 117.43274999999971 C 84.64035999999983 117.58300999999972 84.64035999999983 117.73327999999971 84.64035999999983 117.88353999999971 C 84.64035999999983 118.03379999999972 84.64035999999983 118.1840699999997 84.64035999999983 118.33432999999971 C 84.64035999999983 118.48458999999971 84.64035999999983 118.6348599999997 84.64035999999983 118.78511999999971 C 84.64035999999983 118.93537999999971 84.64035999999983 119.0856499999997 84.64035999999983 119.2359099999997 C 84.64035999999983 119.38616999999971 84.64035999999983 119.5364399999997 84.64035999999983 119.6866999999997 C 84.64035999999983 119.8369599999997 84.64035999999983 119.9872299999997 84.64035999999983 120.1374899999997 C 84.64035999999983 120.2877499999997 84.64035999999983 120.4380199999997 84.64035999999983 120.5882799999997 C 84.64035999999983 120.7385399999997 84.64035999999983 120.8888099999997 84.64035999999983 121.0390699999997 C 84.64035999999983 121.1893299999997 84.64035999999983 121.33959999999969 84.64035999999983 121.4898599999997 C 84.64035999999983 121.6401199999997 84.64035999999983 121.79038999999969 84.64035999999983 121.94064999999969 C 84.64035999999983 122.0909099999997 84.64035999999983 122.24117999999969 84.64035999999983 122.39143999999969 C 84.64035999999983 122.5416999999997 84.64035999999983 122.69196999999969 84.64035999999983 122.84222999999969 C 84.64035999999983 122.99248999999969 84.64035999999983 123.14275999999968 84.64035999999983 123.29301999999969 C 84.64035999999983 123.44327999999969 84.64035999999983 123.59354999999968 84.64035999999983 123.74380999999968 C 84.64035999999983 123.89406999999969 84.64035999999983 124.04433999999968 84.64035999999983 124.19459999999968 C 84.64035999999983 124.34485999999968 84.64035999999983 124.49512999999968 84.64035999999983 124.64538999999968 C 84.64035999999983 124.79564999999968 84.64035999999983 124.94591999999967 84.64035999999983 125.09617999999968 C 84.64035999999983 125.24643999999968 84.64035999999983 125.39670999999967 84.64035999999983 125.54696999999967 C 84.64035999999983 125.69722999999968 84.64035999999983 125.84749999999967 84.64035999999983 125.99775999999967 C 84.64035999999983 126.14801999999968 84.64035999999983 126.29828999999967 84.64035999999983 126.44854999999967 C 84.64035999999983 126.59880999999967 84.71548999999983 126.67394999999966 84.86575999999982 126.67394999999966 C 85.01601999999983 126.67394999999966 85.09115999999982 126.74907999999967 85.09115999999982 126.89934999999966 C 85.09115999999982 127.04960999999966 85.16628999999982 127.12474999999965 85.31655999999981 127.12474999999965 C 85.46681999999981 127.12474999999965 85.5419599999998 127.19987999999965 85.5419599999998 127.35014999999964 C 85.5419599999998 127.50040999999965 85.6170899999998 127.57554999999964 85.7673599999998 127.57554999999964 C 85.9176199999998 127.57554999999964 85.99275999999979 127.65067999999964 85.99275999999979 127.80094999999963 C 85.99275999999979 127.95120999999963 86.06788999999979 128.10147999999964 86.21815999999978 128.25173999999964 C 86.36841999999979 128.40199999999965 86.51868999999978 128.47713999999965 86.66894999999978 128.47713999999965 C 86.81920999999979 128.47713999999965 86.89434999999978 128.55226999999965 86.89434999999978 128.70253999999966 C 86.89434999999978 128.85279999999966 86.96947999999978 128.92793999999967 87.11974999999977 128.92793999999967 C 87.27000999999977 128.92793999999967 87.34514999999976 129.00306999999967 87.34514999999976 129.15333999999967 C 87.34514999999976 129.30359999999968 87.42027999999976 129.37873999999968 87.57054999999976 129.37873999999968 C 87.72080999999976 129.37873999999968 87.87107999999975 129.37873999999968 88.02133999999975 129.37873999999968 C 88.17159999999976 129.37873999999968 88.24673999999975 129.45386999999968 88.24673999999975 129.6041399999997 C 88.24673999999975 129.7543999999997 88.32186999999975 129.8295399999997 88.47213999999974 129.8295399999997 C 88.62239999999974 129.8295399999997 88.77266999999974 129.8295399999997 88.92292999999974 129.8295399999997 C 89.07318999999974 129.8295399999997 89.22345999999973 129.8295399999997 89.37371999999974 129.8295399999997 C 89.52397999999974 129.8295399999997 89.67424999999973 129.9046699999997 89.82450999999973 130.0549399999997 C 89.97476999999974 130.2051999999997 90.12503999999973 130.2803399999997 90.27529999999973 130.2803399999997 C 90.42555999999973 130.2803399999997 90.57582999999973 130.2803399999997 90.72608999999973 130.2803399999997 C 90.87634999999973 130.2803399999997 91.02661999999972 130.2803399999997 91.17687999999973 130.2803399999997 C 91.32713999999973 130.2803399999997 91.47740999999972 130.2803399999997 91.62766999999972 130.2803399999997 C 91.77792999999973 130.2803399999997 91.92819999999972 130.2803399999997 92.07845999999972 130.2803399999997 C 92.22871999999973 130.2803399999997 92.37898999999972 130.2803399999997 92.52924999999972 130.2803399999997 C 92.67950999999972 130.2803399999997 92.82977999999972 130.2803399999997 92.98003999999972 130.2803399999997 C 93.13029999999972 130.2803399999997 93.28056999999971 130.2803399999997 93.43082999999972 130.2803399999997 C 93.58108999999972 130.2803399999997 93.65622999999971 130.2052099999997 93.65622999999971 130.0549399999997 C 93.65622999999971 129.9046799999997 93.73135999999971 129.8295399999997 93.8816299999997 129.8295399999997 C 94.0318899999997 129.8295399999997 94.1821599999997 129.8295399999997 94.3324199999997 129.8295399999997 C 94.4826799999997 129.8295399999997 94.5578199999997 129.7544099999997 94.5578199999997 129.6041399999997 C 94.5578199999997 129.45387999999969 94.6329499999997 129.37873999999968 94.78321999999969 129.37873999999968 C 94.93347999999969 129.37873999999968 95.08374999999968 129.37873999999968 95.23400999999969 129.37873999999968 C 95.38426999999969 129.37873999999968 95.53453999999968 129.37873999999968 95.68479999999968 129.37873999999968 C 95.83505999999969 129.37873999999968 95.98532999999968 129.37873999999968 96.13558999999968 129.37873999999968 C 96.28584999999968 129.37873999999968 96.43611999999968 129.37873999999968 96.58637999999968 129.37873999999968 C 96.73663999999968 129.37873999999968 96.88690999999967 129.37873999999968 97.03716999999968 129.37873999999968 C 97.18742999999968 129.37873999999968 97.33769999999967 129.37873999999968 97.48795999999967 129.37873999999968 C 97.63821999999968 129.37873999999968 97.78848999999967 129.30360999999968 97.93874999999967 129.15333999999967 C 98.08900999999967 129.00307999999967 98.23927999999967 128.92793999999967 98.38953999999967 128.92793999999967 C 98.53979999999967 128.92793999999967 98.69006999999966 128.92793999999967 98.84032999999967 128.92793999999967 C 98.99058999999967 128.92793999999967 99.14085999999966 128.92793999999967 99.29111999999967 128.92793999999967 C 99.44137999999967 128.92793999999967 99.59164999999966 128.92793999999967 99.74190999999966 128.92793999999967 C 99.89216999999967 128.92793999999967 100.04243999999966 128.92793999999967 100.19269999999966 128.92793999999967 C 100.34295999999966 128.92793999999967 100.49322999999966 128.92793999999967 100.64348999999966 128.92793999999967 C 100.79374999999966 128.92793999999967 100.94401999999965 128.92793999999967 101.09427999999966 128.92793999999967 C 101.24453999999966 128.92793999999967 101.39480999999965 128.92793999999967 101.54506999999965 128.92793999999967 C 101.69532999999966 128.92793999999967 101.84559999999965 128.92793999999967 101.99585999999965 128.92793999999967 C 102.11988999999966 128.92793999999967 102.24394999999966 128.97913999999966 102.36798999999965 129.08154999999965 C 102.36254999999966 129.07911999999965 102.35741999999965 129.07672999999966 102.35256999999964 129.07429999999965 C 102.33352999999964 129.06477999999964 102.31444999999964 129.06001999999964 102.29540999999965 129.06001999999964 C 102.27636999999964 129.06001999999964 102.25728999999964 129.05525999999963 102.23824999999965 129.04573999999963 C 102.21920999999965 129.03621999999962 102.20012999999965 129.02669999999964 102.18108999999966 129.01716999999962 L 102.14944999999966 128.99981999999963 L 106.40796999999966 132.65074999999962 C 106.43551999999967 132.6870599999996 106.46743999999967 132.72338999999963 106.50373999999967 132.7596999999996 C 106.58126999999966 132.8372299999996 106.65882999999967 132.89475999999962 106.73634999999966 132.93228999999963 L 107.19447999999966 133.32505999999964 C 107.22294999999966 133.43713999999963 107.29322999999965 133.54919999999964 107.40531999999966 133.66127999999964 C 107.55557999999967 133.81153999999964 107.63071999999966 133.96180999999964 107.63071999999966 134.11206999999965 C 107.63071999999966 134.26232999999965 107.78097999999966 134.41259999999966 108.08150999999965 134.56285999999966 C 108.38203999999965 134.71311999999966 108.53229999999965 134.86338999999967 108.53229999999965 135.01364999999967 C 108.53229999999965 135.16390999999967 108.60742999999965 135.31417999999968 108.75769999999964 135.46443999999968 C 108.90795999999965 135.6146999999997 108.98309999999964 135.7649699999997 108.98309999999964 135.9152299999997 C 108.98309999999964 136.0654899999997 109.05822999999964 136.1406299999997 109.20849999999963 136.1406299999997 C 109.35875999999963 136.1406299999997 109.50902999999963 136.2157599999997 109.65928999999963 136.3660299999997 C 109.80954999999963 136.5162899999997 109.88468999999962 136.66655999999972 109.88468999999962 136.81681999999972 C 109.88468999999962 136.96707999999973 109.95981999999962 137.11734999999973 110.11008999999962 137.26760999999973 C 110.26034999999962 137.41786999999974 110.41061999999961 137.56813999999974 110.56087999999961 137.71839999999975 C 110.71113999999962 137.86865999999975 110.86140999999961 138.01892999999976 111.01166999999961 138.16918999999976 C 111.16192999999961 138.31944999999976 111.2370699999996 138.46971999999977 111.2370699999996 138.61997999999977 C 111.2370699999996 138.77023999999977 111.3121999999996 138.84537999999978 111.4624699999996 138.84537999999978 C 111.6127299999996 138.84537999999978 111.68786999999959 138.92050999999978 111.68786999999959 139.0707799999998 C 111.68786999999959 139.2210399999998 111.7629999999996 139.3713099999998 111.91326999999959 139.5215699999998 C 112.06352999999959 139.6718299999998 112.13866999999958 139.8220999999998 112.13866999999958 139.9723599999998 C 112.13866999999958 140.1226199999998 112.21379999999958 140.27288999999982 112.36406999999957 140.42314999999982 C 112.51432999999957 140.57340999999983 112.66459999999957 140.72367999999983 112.81485999999957 140.87393999999983 C 112.96511999999957 141.02419999999984 113.04025999999956 141.17446999999984 113.04025999999956 141.32472999999985 C 113.04025999999956 141.47498999999985 113.11538999999956 141.62525999999986 113.26565999999956 141.77551999999986 C 113.41591999999956 141.92577999999986 113.56618999999955 142.07604999999987 113.71644999999955 142.22630999999987 C 113.86670999999956 142.37656999999987 113.94184999999955 142.60196999999988 113.94184999999955 142.90246999999988 C 113.94184999999955 143.08028999999988 113.96813999999955 143.23180999999988 114.02075999999954 143.35703999999987 C 114.69565999999953 143.37632999999988 115.37288999999954 143.38603999999987 116.05241999999954 143.38603999999987 C 126.85501999999954 143.38603999999987 137.08811999999955 140.93291999999985 146.22470999999953 136.55371999999986 C 114.13464999999954 166.21402999999987 64.01431999999953 164.37950999999987 34.18196999999954 132.38820999999984 C 32.67352999999954 130.77059999999983 31.245629999999537 129.10664999999983 29.898109999999537 127.40127999999984 C 33.66139999999954 134.53489999999985 38.420899999999534 141.29211999999984 44.183529999999536 147.47181999999984 L 44.18355999999954 147.47178999999983 C 79.23077999999954 185.05533999999983 138.17752999999954 187.11381999999983 175.76108999999954 152.06658999999982 C 185.58415999999954 142.90643999999983 192.98042999999953 132.11366999999981 197.92167999999953 120.49640999999983 C 188.46164999999954 165.88902999999982 148.19902999999954 200.0244799999998 100.01209999999952 200.0244799999998 C 44.80540999999952 200.0244799999998 -4.831690603168681e-13 155.2190599999998 -4.831690603168681e-13 100.01237999999981 C -4.831690603168681e-13 44.80568999999981 44.805419999999515 0.00027999999980465873 100.01209999999952 0.00027999999980465873 z" stroke-linecap="round" />
</g>
</svg>